<svg xmlns="http://www.w3.org/2000/svg" xmlns:xlink="http://www.w3.org/1999/xlink" width="500" zoomAndPan="magnify" viewBox="0 0 375 374.999991" height="500" preserveAspectRatio="xMidYMid meet" version="1.0"><defs><g/><clipPath id="ce9fce5f3d"><path d="M 102.0625 102.0625 L 273.0625 102.0625 L 273.0625 273.0625 L 102.0625 273.0625 Z M 102.0625 102.0625 " clip-rule="nonzero"/></clipPath><clipPath id="24ac31e7d9"><path d="M 112.5 113.53125 L 261 113.53125 L 261 261.28125 L 112.5 261.28125 Z M 112.5 113.53125 " clip-rule="nonzero"/></clipPath></defs><rect x="-37.5" width="450" fill="#ffffff" y="-37.499999" height="449.999989" fill-opacity="1"/><rect x="-37.5" width="450" fill="#ffffff" y="-37.499999" height="449.999989" fill-opacity="1"/><rect x="-37.5" width="450" fill="#ffffff" y="-37.499999" height="449.999989" fill-opacity="1"/><g clip-path="url(#ce9fce5f3d)"><path fill="#e8d9cc" d="M 187.5625 102.0625 C 140.339844 102.0625 102.0625 140.339844 102.0625 187.5625 C 102.0625 234.78125 140.339844 273.0625 187.5625 273.0625 C 234.78125 273.0625 273.0625 234.78125 273.0625 187.5625 C 273.0625 140.339844 234.78125 102.0625 187.5625 102.0625 " fill-opacity="1" fill-rule="nonzero"/></g><g fill="#464c4c" fill-opacity="1"><g transform="translate(211.740751, 297.72112)"><g><path d="M 11.421875 -18.65625 L 15.921875 -5.390625 L 14.59375 -4.9375 L 11 -15.546875 L 8.796875 -4.859375 L 8.140625 -4.640625 L -0.078125 -11.734375 L 3.5 -1.1875 L 2.15625 -0.734375 L -2.34375 -14 L -1.1875 -14.390625 L 7.921875 -6.515625 L 10.265625 -18.265625 Z M 11.421875 -18.65625 "/></g></g></g><g fill="#464c4c" fill-opacity="1"><g transform="translate(231.7008, 290.524729)"><g><path d="M 10.140625 -6.875 L 10.75 -5.75 L 2.015625 -1.078125 L -4.59375 -13.421875 L 3.859375 -17.953125 L 4.46875 -16.828125 L -2.6875 -13 L -0.34375 -8.59375 L 6.046875 -12 L 6.640625 -10.90625 L 0.25 -7.5 L 2.703125 -2.90625 Z M 10.140625 -6.875 "/></g></g></g><g fill="#464c4c" fill-opacity="1"><g transform="translate(245.186761, 283.184885)"><g><path d="M 6.71875 -9.5625 L 0.421875 -4.953125 L 1.265625 -0.9375 L 0.03125 -0.03125 L -3.09375 -15.09375 L -1.90625 -15.96875 L 11.515625 -8.46875 L 10.265625 -7.546875 Z M 5.546875 -10.203125 L -1.609375 -14.265625 L 0.140625 -6.234375 Z M 5.546875 -10.203125 "/></g></g></g><g fill="#464c4c" fill-opacity="1"><g transform="translate(258.143619, 273.391903)"><g><path d="M -5.234375 -12.625 L -8.765625 -9.203125 L -9.65625 -10.125 L -1.5 -17.984375 L -0.609375 -17.0625 L -4.15625 -13.65625 L 4.671875 -4.5 L 3.59375 -3.46875 Z M -5.234375 -12.625 "/></g></g></g><g fill="#464c4c" fill-opacity="1"><g transform="translate(267.654515, 264.092304)"><g><path d="M -9.421875 -10.609375 L -8.484375 -11.765625 L 1.375 -3.734375 L 6.328125 -9.796875 L 7.328125 -8.984375 L 1.4375 -1.765625 Z M -9.421875 -10.609375 "/></g></g></g><g fill="#464c4c" fill-opacity="1"><g transform="translate(276.231516, 253.449945)"><g><path d="M 5.3125 -11.03125 L 6.40625 -10.359375 L 1.203125 -1.9375 L -10.703125 -9.296875 L -5.65625 -17.453125 L -4.5625 -16.78125 L -8.828125 -9.890625 L -4.59375 -7.265625 L -0.796875 -13.421875 L 0.265625 -12.765625 L -3.53125 -6.609375 L 0.890625 -3.875 Z M 5.3125 -11.03125 "/></g></g></g><g fill="#464c4c" fill-opacity="1"><g transform="translate(284.128331, 240.368366)"><g><path d="M 2.625 -5.5625 C 2.195312 -4.601562 1.632812 -3.753906 0.9375 -3.015625 C 0.25 -2.285156 -0.445312 -1.800781 -1.15625 -1.5625 L -1.96875 -2.546875 C -1.289062 -2.796875 -0.640625 -3.238281 -0.015625 -3.875 C 0.609375 -4.519531 1.101562 -5.253906 1.46875 -6.078125 C 1.976562 -7.210938 2.148438 -8.160156 1.984375 -8.921875 C 1.828125 -9.691406 1.410156 -10.226562 0.734375 -10.53125 C 0.234375 -10.757812 -0.234375 -10.78125 -0.671875 -10.59375 C -1.117188 -10.414062 -1.523438 -10.140625 -1.890625 -9.765625 C -2.253906 -9.398438 -2.71875 -8.851562 -3.28125 -8.125 C -3.945312 -7.28125 -4.519531 -6.617188 -5 -6.140625 C -5.476562 -5.671875 -6.039062 -5.335938 -6.6875 -5.140625 C -7.34375 -4.941406 -8.0625 -5.019531 -8.84375 -5.375 C -9.5 -5.664062 -10.015625 -6.097656 -10.390625 -6.671875 C -10.765625 -7.253906 -10.953125 -7.96875 -10.953125 -8.8125 C -10.953125 -9.664062 -10.722656 -10.613281 -10.265625 -11.65625 C -9.929688 -12.382812 -9.503906 -13.050781 -8.984375 -13.65625 C -8.472656 -14.257812 -7.925781 -14.742188 -7.34375 -15.109375 L -6.46875 -14.15625 C -7.0625 -13.78125 -7.582031 -13.332031 -8.03125 -12.8125 C -8.476562 -12.289062 -8.835938 -11.734375 -9.109375 -11.140625 C -9.609375 -10.015625 -9.765625 -9.070312 -9.578125 -8.3125 C -9.398438 -7.550781 -8.96875 -7.019531 -8.28125 -6.71875 C -7.78125 -6.488281 -7.300781 -6.457031 -6.84375 -6.625 C -6.394531 -6.800781 -5.984375 -7.082031 -5.609375 -7.46875 C -5.242188 -7.863281 -4.78125 -8.414062 -4.21875 -9.125 C -3.582031 -9.957031 -3.019531 -10.613281 -2.53125 -11.09375 C -2.050781 -11.582031 -1.492188 -11.921875 -0.859375 -12.109375 C -0.222656 -12.296875 0.484375 -12.21875 1.265625 -11.875 C 1.910156 -11.582031 2.414062 -11.144531 2.78125 -10.5625 C 3.15625 -9.988281 3.335938 -9.269531 3.328125 -8.40625 C 3.328125 -7.550781 3.09375 -6.601562 2.625 -5.5625 Z M 2.625 -5.5625 "/></g></g></g><g fill="#464c4c" fill-opacity="1"><g transform="translate(289.813734, 227.393064)"><g><path d="M 1.90625 -5.84375 C 1.601562 -4.84375 1.148438 -3.929688 0.546875 -3.109375 C -0.046875 -2.296875 -0.679688 -1.722656 -1.359375 -1.390625 L -2.28125 -2.28125 C -1.644531 -2.625 -1.054688 -3.148438 -0.515625 -3.859375 C 0.0234375 -4.566406 0.425781 -5.347656 0.6875 -6.203125 C 1.050781 -7.398438 1.101562 -8.367188 0.84375 -9.109375 C 0.59375 -9.847656 0.113281 -10.320312 -0.59375 -10.53125 C -1.125 -10.695312 -1.597656 -10.660156 -2.015625 -10.421875 C -2.429688 -10.191406 -2.800781 -9.867188 -3.125 -9.453125 C -3.445312 -9.035156 -3.832031 -8.429688 -4.28125 -7.640625 C -4.84375 -6.722656 -5.332031 -6 -5.75 -5.46875 C -6.164062 -4.9375 -6.679688 -4.53125 -7.296875 -4.25 C -7.910156 -3.96875 -8.632812 -3.953125 -9.46875 -4.203125 C -10.144531 -4.410156 -10.703125 -4.773438 -11.140625 -5.296875 C -11.585938 -5.828125 -11.863281 -6.507812 -11.96875 -7.34375 C -12.082031 -8.1875 -11.976562 -9.15625 -11.65625 -10.25 C -11.414062 -11.019531 -11.078125 -11.738281 -10.640625 -12.40625 C -10.210938 -13.082031 -9.734375 -13.628906 -9.203125 -14.046875 L -8.21875 -13.234375 C -8.75 -12.785156 -9.207031 -12.269531 -9.59375 -11.6875 C -9.976562 -11.113281 -10.265625 -10.515625 -10.453125 -9.890625 C -10.804688 -8.710938 -10.84375 -7.753906 -10.5625 -7.015625 C -10.289062 -6.285156 -9.796875 -5.8125 -9.078125 -5.59375 C -8.546875 -5.4375 -8.066406 -5.472656 -7.640625 -5.703125 C -7.210938 -5.941406 -6.835938 -6.273438 -6.515625 -6.703125 C -6.203125 -7.140625 -5.816406 -7.742188 -5.359375 -8.515625 C -4.816406 -9.429688 -4.335938 -10.15625 -3.921875 -10.6875 C -3.503906 -11.21875 -2.988281 -11.617188 -2.375 -11.890625 C -1.769531 -12.171875 -1.0625 -12.191406 -0.25 -11.953125 C 0.425781 -11.742188 0.984375 -11.375 1.421875 -10.84375 C 1.867188 -10.3125 2.144531 -9.617188 2.25 -8.765625 C 2.351562 -7.910156 2.238281 -6.9375 1.90625 -5.84375 Z M 1.90625 -5.84375 "/></g></g></g><g clip-path="url(#24ac31e7d9)"><path fill="#000000" d="M 154.296875 113.621094 C 154.101562 113.621094 153.910156 113.628906 153.71875 113.660156 C 152.207031 113.882812 150.871094 115.015625 150.582031 116.679688 L 150.003906 119.984375 L 148.390625 116.613281 C 147.417969 114.589844 144.949219 113.917969 143.101562 114.953125 L 140.503906 116.40625 C 138.65625 117.449219 138.035156 119.945312 139.308594 121.757812 L 142.851562 126.871094 C 139.570312 127.644531 136.757812 130.066406 136.15625 133.613281 L 131.375 162.121094 C 128.730469 161.324219 126.945312 161.042969 126.945312 161.042969 C 126.839844 161.027344 126.738281 161.011719 126.632812 161.011719 C 126.285156 161.019531 125.949219 161.148438 125.683594 161.371094 C 125.683594 161.371094 121.550781 164.816406 117.925781 170.164062 C 115.074219 174.382812 112.445312 179.898438 112.511719 185.917969 C 112.511719 185.976562 112.503906 186.03125 112.503906 186.097656 C 112.503906 186.449219 112.519531 186.800781 112.542969 187.15625 C 112.511719 187.277344 112.503906 187.398438 112.503906 187.507812 C 112.503906 228.3125 145.664062 261.414062 186.542969 261.414062 C 227.386719 261.414062 262.453125 228.921875 260.574219 182.460938 C 260.574219 182.429688 260.574219 182.394531 260.566406 182.363281 C 260.574219 177.78125 257.496094 173.246094 252.953125 171.351562 C 253.121094 170.539062 253.234375 169.722656 253.234375 168.894531 L 253.234375 168.886719 C 253.226562 163.636719 249.78125 159.078125 244.851562 157.421875 C 244.941406 156.835938 245.101562 156.257812 245.101562 155.65625 C 245.085938 148.972656 239.570312 143.527344 232.828125 143.511719 C 228.867188 143.503906 225.242188 145.472656 222.957031 148.625 C 222.082031 148.425781 221.191406 148.289062 220.289062 148.289062 L 220.28125 148.289062 C 216.410156 148.273438 212.960938 150.078125 210.734375 152.878906 C 206.53125 148.929688 200.863281 146.507812 194.644531 146.507812 C 187.796875 146.507812 181.632812 149.445312 177.332031 154.125 C 177.300781 154.125 177.257812 154.125 177.226562 154.125 C 176.617188 154.15625 176.003906 154.195312 175.402344 154.238281 C 174.792969 154.277344 174.1875 154.316406 173.59375 154.355469 C 173.457031 154.375 173.328125 154.398438 173.199219 154.445312 C 172.695312 153.03125 171.707031 151.789062 170.324219 150.984375 C 169.542969 150.535156 168.707031 150.269531 167.871094 150.167969 C 165.347656 149.855469 162.75 151.027344 161.410156 153.355469 C 160.941406 154.15625 160.679688 155.015625 160.589844 155.882812 C 160.042969 155.96875 159.503906 156.058594 158.964844 156.15625 L 164.335938 141.082031 C 165.53125 137.71875 164.351562 134.234375 161.90625 131.9375 L 167.558594 129.28125 C 169.558594 128.332031 170.289062 125.867188 169.207031 124.039062 L 167.695312 121.492188 C 166.609375 119.671875 164.132812 119.039062 162.277344 120.304688 L 159.835938 121.96875 L 160.75 119.359375 C 161.480469 117.265625 160.210938 115.046875 158.164062 114.503906 L 155.261719 113.730469 C 154.9375 113.652344 154.617188 113.601562 154.296875 113.601562 Z M 154.335938 116.703125 C 154.382812 116.703125 154.425781 116.703125 154.464844 116.710938 L 157.359375 117.480469 C 157.695312 117.570312 157.96875 117.960938 157.832031 118.347656 L 155.375 125.386719 C 154.882812 126.792969 156.464844 128.003906 157.695312 127.160156 L 164.011719 122.851562 C 164.351562 122.617188 164.882812 122.8125 165.035156 123.074219 L 166.546875 125.621094 C 166.699219 125.875 166.640625 126.308594 166.230469 126.503906 L 158.828125 129.988281 C 158.492188 129.851562 158.136719 129.738281 157.785156 129.640625 C 157.777344 129.632812 157.769531 129.632812 157.761719 129.632812 L 147.601562 126.929688 C 147.230469 126.832031 146.855469 126.75 146.484375 126.703125 L 141.832031 120.007812 C 141.574219 119.640625 141.742188 119.238281 142.015625 119.085938 L 144.601562 117.632812 C 144.875 117.488281 145.421875 117.585938 145.601562 117.945312 L 149.296875 125.652344 C 149.941406 127 151.949219 126.726562 152.207031 125.25 L 153.613281 117.207031 C 153.667969 116.886719 154.023438 116.679688 154.328125 116.695312 Z M 145.214844 129.691406 C 145.328125 129.691406 145.449219 129.699219 145.558594 129.699219 C 145.617188 129.707031 145.664062 129.714844 145.71875 129.714844 C 145.792969 129.714844 145.867188 129.722656 145.9375 129.738281 C 145.984375 129.746094 146.035156 129.753906 146.089844 129.769531 C 146.164062 129.777344 146.242188 129.800781 146.324219 129.808594 C 146.363281 129.816406 146.410156 129.828125 146.453125 129.84375 C 146.574219 129.867188 146.691406 129.890625 146.8125 129.921875 L 156.964844 132.628906 C 157.328125 132.722656 157.671875 132.851562 158 132.996094 C 158.058594 133.027344 158.121094 133.054688 158.179688 133.078125 C 160.832031 134.386719 162.390625 137.355469 161.417969 140.078125 L 160.398438 142.957031 L 146.113281 139.152344 C 145.96875 139.113281 145.816406 139.105469 145.65625 139.105469 C 143.863281 139.144531 143.582031 141.699219 145.328125 142.132812 L 159.359375 145.871094 L 151.757812 167.222656 L 146.949219 165.941406 C 146.804688 165.898438 146.652344 165.890625 146.492188 165.890625 C 144.699219 165.933594 144.417969 168.484375 146.164062 168.925781 L 150.71875 170.136719 L 149.417969 173.816406 C 145.457031 168.242188 139.226562 164.976562 134.324219 163.148438 L 136.132812 152.398438 C 136.1875 152.421875 136.246094 152.4375 136.300781 152.445312 L 151.035156 156.371094 C 153.027344 156.910156 153.832031 153.914062 151.828125 153.394531 L 137.097656 149.476562 C 136.953125 149.429688 136.800781 149.421875 136.636719 149.421875 L 139.203125 134.144531 C 139.660156 131.433594 142.320312 129.65625 145.214844 129.707031 Z M 232.820312 146.601562 L 232.820312 146.609375 C 237.910156 146.617188 242 150.671875 242.015625 155.671875 C 242.015625 156.5 241.894531 157.320312 241.667969 158.113281 C 241.429688 158.972656 241.96875 159.855469 242.84375 160.039062 C 247.101562 160.929688 250.140625 164.632812 250.148438 168.910156 C 250.148438 169.898438 249.988281 170.886719 249.660156 171.816406 C 249.371094 172.660156 249.851562 173.574219 250.710938 173.808594 C 254.617188 174.875 257.542969 179.015625 257.480469 182.5 C 257.480469 182.507812 257.480469 182.523438 257.480469 182.539062 C 257.4375 184.5625 257.011719 186.167969 255.917969 187.589844 C 254.828125 189.027344 252.96875 190.34375 249.835938 191.449219 C 248.847656 191.804688 248.492188 193.015625 249.136719 193.84375 C 249.441406 194.242188 249.714844 194.660156 249.949219 195.09375 C 250.1875 195.527344 250.390625 195.976562 250.550781 196.441406 C 250.664062 196.773438 250.75 197.101562 250.824219 197.4375 C 247.433594 200.832031 242.820312 203.8125 237.167969 206.339844 C 231.742188 208.765625 225.402344 210.730469 218.394531 212.191406 L 220.5625 204.09375 L 241.992188 199.984375 C 243.871094 199.644531 243.582031 196.867188 241.667969 196.933594 C 241.582031 196.933594 241.492188 196.941406 241.414062 196.957031 L 221.449219 200.785156 L 222.832031 195.625 L 225.933594 184.074219 L 247.375 179.972656 C 249.265625 179.640625 248.96875 176.847656 247.054688 176.914062 C 246.964844 176.921875 246.878906 176.929688 246.789062 176.945312 L 226.824219 180.765625 L 227.628906 177.78125 L 232.425781 159.945312 C 232.707031 158.925781 231.914062 157.929688 230.859375 157.984375 C 230.183594 158.027344 229.605469 158.492188 229.445312 159.148438 L 224.648438 176.984375 L 223.851562 179.957031 L 208.515625 166.726562 C 208.242188 166.484375 207.890625 166.339844 207.527344 166.332031 C 206.074219 166.292969 205.382812 168.117188 206.5 169.054688 L 222.957031 183.253906 L 219.847656 194.828125 L 218.472656 199.96875 L 203.132812 186.738281 C 202.859375 186.496094 202.511719 186.351562 202.148438 186.34375 C 200.6875 186.304688 199.996094 188.128906 201.113281 189.066406 L 217.582031 203.273438 L 215.019531 212.84375 C 212.246094 213.347656 209.367188 213.773438 206.417969 214.117188 C 208.066406 211.230469 208.917969 208.066406 208.789062 204.894531 C 208.78125 204.757812 208.773438 204.621094 208.765625 204.484375 C 208.757812 204.34375 208.742188 204.207031 208.734375 204.070312 C 208.71875 203.933594 208.699219 203.789062 208.683594 203.652344 C 208.652344 203.378906 208.605469 203.097656 208.554688 202.824219 C 208.460938 202.269531 208.324219 201.71875 208.164062 201.164062 C 206.84375 196.78125 203.484375 192.6875 197.953125 189.492188 C 197.09375 188.992188 196.210938 188.527344 195.292969 188.101562 C 195.882812 185.390625 197.640625 183.0625 200.207031 181.851562 C 200.222656 181.84375 200.238281 181.84375 200.261719 181.816406 C 200.316406 181.792969 200.375 181.769531 200.429688 181.738281 C 200.496094 181.714844 200.558594 181.6875 200.625 181.65625 C 200.632812 181.648438 200.640625 181.648438 200.65625 181.648438 C 200.679688 181.632812 200.710938 181.617188 200.742188 181.601562 C 200.839844 181.5625 200.929688 181.535156 201.023438 181.496094 C 201.050781 181.488281 201.066406 181.480469 201.089844 181.480469 L 204.359375 180.347656 L 201.332031 178.6875 C 201.332031 178.6875 201.332031 178.679688 201.324219 178.679688 C 201.234375 178.621094 201.144531 178.582031 201.058594 178.527344 C 200.960938 178.46875 200.871094 178.414062 200.792969 178.367188 C 200.527344 178.199219 200.277344 178.011719 200.035156 177.828125 C 199.957031 177.757812 199.875 177.707031 199.804688 177.636719 C 199.722656 177.5625 199.652344 177.5 199.570312 177.433594 C 199.425781 177.296875 199.273438 177.152344 199.136719 177.007812 C 198.925781 176.792969 198.726562 176.566406 198.542969 176.335938 C 198.476562 176.253906 198.421875 176.175781 198.355469 176.09375 C 198.234375 175.933594 198.125 175.773438 198.019531 175.605469 C 197.996094 175.574219 197.980469 175.53125 197.953125 175.507812 C 197.921875 175.453125 197.890625 175.394531 197.859375 175.347656 C 197.808594 175.269531 197.761719 175.179688 197.707031 175.089844 C 197.691406 175.050781 197.664062 175.011719 197.640625 174.953125 C 197.519531 174.738281 197.417969 174.511719 197.3125 174.28125 C 197.289062 174.230469 197.265625 174.175781 197.246094 174.121094 C 197.230469 174.078125 197.214844 174.039062 197.199219 174.007812 C 197.167969 173.910156 197.128906 173.824219 197.09375 173.726562 C 197.03125 173.542969 196.964844 173.347656 196.910156 173.15625 C 196.863281 172.964844 196.8125 172.769531 196.773438 172.578125 C 196.75 172.480469 196.734375 172.378906 196.710938 172.28125 C 196.675781 172.082031 196.652344 171.878906 196.628906 171.679688 C 196.628906 171.671875 196.628906 171.664062 196.628906 171.648438 C 196.597656 171.359375 196.582031 171.054688 196.582031 170.757812 C 196.582031 170.289062 196.613281 169.832031 196.675781 169.382812 C 196.683594 169.335938 196.699219 169.28125 196.710938 169.222656 C 196.726562 169.125 196.742188 169.039062 196.757812 168.941406 C 196.773438 168.863281 196.789062 168.796875 196.804688 168.71875 C 196.828125 168.652344 196.835938 168.582031 196.855469 168.515625 C 196.878906 168.421875 196.902344 168.339844 196.925781 168.253906 C 196.949219 168.195312 196.957031 168.140625 196.972656 168.089844 C 197 168.003906 197.03125 167.921875 197.0625 167.835938 C 197.078125 167.785156 197.09375 167.730469 197.117188 167.664062 C 197.152344 167.601562 197.175781 167.523438 197.207031 167.449219 C 197.230469 167.378906 197.253906 167.320312 197.28125 167.257812 C 197.320312 167.167969 197.359375 167.078125 197.398438 166.992188 C 197.417969 166.953125 197.433594 166.902344 197.457031 166.863281 C 197.496094 166.765625 197.554688 166.664062 197.609375 166.566406 C 197.625 166.535156 197.632812 166.511719 197.648438 166.484375 C 197.714844 166.375 197.769531 166.277344 197.835938 166.171875 C 197.84375 166.15625 197.859375 166.132812 197.867188 166.117188 C 197.929688 166.011719 198.003906 165.898438 198.066406 165.796875 C 198.082031 165.789062 198.082031 165.773438 198.097656 165.753906 C 198.171875 165.652344 198.246094 165.546875 198.324219 165.441406 C 198.332031 165.433594 198.339844 165.410156 198.347656 165.402344 C 199.972656 163.21875 202.578125 161.796875 205.542969 161.75 L 205.742188 161.75 C 205.871094 161.75 206.007812 161.757812 206.136719 161.765625 C 206.28125 161.765625 206.425781 161.773438 206.570312 161.789062 C 207.132812 161.847656 207.695312 161.949219 208.242188 162.109375 C 208.386719 162.152344 208.523438 162.191406 208.652344 162.230469 C 208.789062 162.28125 208.925781 162.328125 209.054688 162.382812 L 211.3125 163.265625 L 211.160156 160.851562 C 211.152344 160.769531 211.144531 160.683594 211.144531 160.601562 C 211.144531 160.523438 211.144531 160.449219 211.144531 160.378906 C 211.144531 160.242188 211.144531 160.113281 211.152344 159.976562 C 211.152344 159.9375 211.152344 159.894531 211.152344 159.855469 C 211.160156 159.734375 211.167969 159.605469 211.183594 159.476562 C 211.183594 159.4375 211.191406 159.414062 211.191406 159.367188 C 211.207031 159.277344 211.214844 159.179688 211.234375 159.09375 C 211.234375 159.042969 211.242188 158.980469 211.257812 158.941406 C 211.273438 158.84375 211.289062 158.738281 211.304688 158.644531 C 211.320312 158.554688 211.335938 158.476562 211.359375 158.386719 C 211.359375 158.378906 211.367188 158.347656 211.367188 158.339844 C 211.5625 157.519531 211.867188 156.742188 212.269531 156.027344 L 212.46875 155.664062 C 214.0625 153.082031 216.945312 151.363281 220.265625 151.371094 C 221.222656 151.378906 222.171875 151.53125 223.078125 151.820312 C 223.777344 152.046875 224.527344 151.757812 224.894531 151.128906 C 226.511719 148.328125 229.535156 146.59375 232.820312 146.601562 Z M 194.644531 149.597656 C 200.316406 149.597656 205.382812 151.957031 209.078125 155.671875 C 208.636719 156.699219 208.339844 157.800781 208.203125 158.949219 C 207.535156 158.8125 206.867188 158.714844 206.191406 158.683594 C 203.523438 155.96875 199.964844 154.1875 196.1875 153.820312 L 194.644531 153.820312 C 185.730469 153.820312 178.480469 161.058594 178.480469 169.953125 C 178.480469 178.164062 184.660156 184.972656 192.625 185.960938 C 192.523438 186.257812 192.425781 186.554688 192.34375 186.859375 C 188.421875 185.40625 184.257812 184.570312 180.351562 184.464844 C 180.3125 184.425781 180.265625 184.386719 180.226562 184.347656 C 179.300781 183.421875 178.464844 182.410156 177.734375 181.328125 C 177.675781 181.246094 177.636719 181.167969 177.582031 181.085938 L 179.492188 180.574219 L 179.210938 179.160156 C 179.195312 179.074219 179.171875 178.984375 179.148438 178.886719 C 179.132812 178.800781 179.109375 178.710938 179.082031 178.621094 C 179.042969 178.476562 179.003906 178.335938 178.953125 178.191406 C 178.945312 178.171875 178.945312 178.15625 178.9375 178.148438 C 178.183594 175.84375 176.558594 173.992188 174.484375 172.738281 C 174.355469 171.824219 174.246094 170.902344 174.246094 169.953125 C 174.246094 158.699219 183.359375 149.605469 194.644531 149.605469 Z M 166.972656 153.191406 C 167.132812 153.191406 167.300781 153.199219 167.46875 153.21875 C 167.910156 153.273438 168.355469 153.425781 168.773438 153.667969 C 170.441406 154.628906 171.007812 156.71875 170.058594 158.363281 C 169.101562 160.007812 167.035156 160.5625 165.363281 159.597656 C 163.691406 158.636719 163.128906 156.546875 164.078125 154.902344 C 164.703125 153.820312 165.8125 153.210938 166.972656 153.191406 Z M 193.101562 156.988281 L 193.101562 166.238281 L 186.542969 159.6875 C 188.390625 158.234375 190.640625 157.269531 193.101562 156.988281 Z M 196.1875 156.988281 C 198.292969 157.253906 200.292969 158.027344 202.039062 159.222656 C 199.707031 159.953125 197.679688 161.347656 196.1875 163.1875 Z M 174.839844 157.375 C 172.515625 161.011719 171.167969 165.332031 171.167969 169.953125 C 171.167969 170.417969 171.183594 170.886719 171.214844 171.351562 C 170.84375 171.253906 170.46875 171.164062 170.082031 171.09375 C 170.242188 168.332031 168.84375 165.628906 166.367188 164.191406 C 165.128906 163.476562 163.714844 163.128906 162.285156 163.195312 C 159.753906 163.300781 157.453125 164.695312 156.183594 166.886719 C 155.042969 168.886719 154.90625 171.261719 155.734375 173.332031 C 154.539062 173.671875 153.414062 174.128906 152.375 174.671875 L 157.777344 159.511719 C 158.050781 159.453125 158.324219 159.414062 158.597656 159.359375 C 159.382812 159.214844 160.1875 159.078125 160.992188 158.949219 C 161.515625 160.296875 162.476562 161.484375 163.820312 162.253906 C 166.921875 164.054688 170.941406 162.996094 172.734375 159.894531 C 173.175781 159.117188 173.449219 158.28125 173.546875 157.441406 C 173.640625 157.457031 173.730469 157.457031 173.828125 157.449219 C 174.164062 157.414062 174.503906 157.390625 174.847656 157.375 Z M 184.363281 161.863281 L 190.921875 168.414062 L 181.65625 168.414062 C 181.945312 165.957031 182.910156 163.707031 184.363281 161.863281 Z M 128.84375 164.671875 C 133.214844 165.84375 143.921875 169.472656 148.253906 177.875 C 147.988281 178.164062 147.738281 178.46875 147.503906 178.777344 C 145.855469 180.976562 144.988281 183.640625 145.300781 186.296875 C 145.183594 186.367188 145.070312 186.464844 144.972656 186.570312 L 136.976562 194.972656 L 136.179688 192.027344 L 133.875 183.429688 L 140.851562 176.753906 C 141.878906 175.789062 141.195312 174.070312 139.789062 174.085938 C 139.386719 174.085938 139 174.25 138.71875 174.527344 L 132.964844 180.035156 L 132.347656 177.738281 Z M 125.851562 165.433594 L 129.363281 178.542969 L 130.007812 180.917969 L 122.269531 179.089844 C 122.125 179.046875 121.960938 179.03125 121.808594 179.046875 C 120.015625 179.144531 119.800781 181.707031 121.558594 182.089844 L 130.914062 184.296875 L 133.199219 192.824219 L 134.003906 195.800781 L 123.054688 192.679688 C 122.910156 192.636719 122.757812 192.605469 122.597656 192.605469 C 120.804688 192.621094 120.476562 195.167969 122.203125 195.632812 L 134.925781 199.269531 L 136.960938 206.820312 C 136.597656 206.675781 136.238281 206.535156 135.875 206.378906 C 129.445312 203.660156 124.300781 200.433594 120.828125 196.957031 C 118.082031 194.210938 116.402344 191.355469 115.8125 188.433594 C 114.824219 182.332031 117.398438 176.457031 120.484375 171.894531 C 122.515625 168.894531 124.542969 166.710938 125.851562 165.433594 Z M 162.734375 166.261719 C 163.457031 166.277344 164.183594 166.484375 164.816406 166.855469 L 164.808594 166.855469 C 166.265625 167.691406 167.027344 169.238281 166.957031 170.835938 C 165.613281 170.859375 164.238281 171.046875 162.863281 171.414062 L 158.78125 172.507812 C 158.136719 171.214844 158.121094 169.695312 158.863281 168.421875 L 158.863281 168.429688 C 159.59375 167.144531 160.933594 166.332031 162.421875 166.269531 C 162.527344 166.261719 162.632812 166.261719 162.734375 166.261719 Z M 181.65625 171.496094 L 190.921875 171.496094 L 184.371094 178.027344 C 182.910156 176.191406 181.945312 173.953125 181.65625 171.496094 Z M 193.101562 173.671875 L 193.101562 182.886719 C 190.648438 182.597656 188.398438 181.640625 186.558594 180.195312 Z M 167.285156 173.917969 C 167.371094 173.917969 167.460938 173.917969 167.542969 173.917969 C 167.636719 173.917969 167.726562 173.925781 167.816406 173.925781 C 167.894531 173.933594 167.984375 173.933594 168.070312 173.941406 C 169.414062 174.023438 170.667969 174.320312 171.761719 174.792969 C 171.882812 174.84375 171.996094 174.882812 172.105469 174.945312 L 172.332031 175.058594 C 172.523438 175.15625 172.710938 175.257812 172.886719 175.363281 C 172.902344 175.371094 172.910156 175.378906 172.917969 175.378906 C 172.992188 175.421875 173.0625 175.46875 173.136719 175.515625 C 173.175781 175.539062 173.222656 175.566406 173.273438 175.613281 C 173.304688 175.636719 173.335938 175.652344 173.367188 175.675781 C 174.40625 176.40625 175.183594 177.332031 175.691406 178.398438 L 151.21875 184.949219 L 148.421875 185.695312 C 148.226562 183.464844 149.175781 181.160156 151.195312 179.265625 C 152.625 177.925781 154.546875 176.824219 156.789062 176.222656 L 158.453125 175.78125 L 158.460938 175.78125 L 163.660156 174.382812 C 163.851562 174.335938 164.046875 174.289062 164.230469 174.25 C 164.285156 174.238281 164.351562 174.214844 164.40625 174.207031 C 164.535156 174.175781 164.664062 174.152344 164.792969 174.128906 C 164.875 174.113281 164.953125 174.097656 165.035156 174.085938 C 165.136719 174.070312 165.25 174.046875 165.355469 174.03125 C 165.445312 174.023438 165.53125 174 165.621094 174 C 165.71875 173.992188 165.8125 173.976562 165.910156 173.976562 C 166 173.960938 166.09375 173.960938 166.183594 173.941406 C 166.28125 173.941406 166.367188 173.933594 166.457031 173.933594 C 166.554688 173.925781 166.648438 173.917969 166.746094 173.917969 C 166.828125 173.917969 166.914062 173.917969 167.003906 173.910156 C 167.101562 173.910156 167.1875 173.910156 167.285156 173.910156 Z M 196.1875 178.238281 C 196.628906 178.785156 197.117188 179.296875 197.648438 179.761719 C 197.136719 180.09375 196.644531 180.453125 196.1875 180.839844 Z M 174.453125 181.921875 C 174.6875 182.308594 174.929688 182.683594 175.175781 183.054688 C 175.539062 183.589844 175.933594 184.121094 176.34375 184.628906 C 174.09375 184.882812 171.996094 185.4375 170.179688 186.34375 L 169.359375 183.285156 Z M 166.402344 184.152344 L 167.476562 188.167969 C 166.808594 188.777344 166.214844 189.476562 165.726562 190.253906 C 165.652344 190.367188 165.589844 190.472656 165.515625 190.582031 C 165.445312 190.726562 165.363281 190.863281 165.292969 191.007812 C 165.089844 191.394531 164.929688 191.789062 164.785156 192.195312 C 163.484375 191.753906 162.125 191.457031 160.71875 191.320312 L 159.304688 186.046875 Z M 156.304688 186.777344 L 157.511719 191.28125 C 155.816406 191.402344 154.183594 191.769531 152.648438 192.332031 C 152.945312 190.769531 153.15625 189.1875 153.226562 187.605469 Z M 179.589844 187.53125 L 179.710938 187.53125 C 179.96875 187.53125 180.226562 187.542969 180.488281 187.542969 C 180.496094 187.542969 180.507812 187.542969 180.523438 187.542969 C 181.027344 187.558594 181.550781 187.597656 182.074219 187.636719 C 182.097656 187.644531 182.128906 187.644531 182.160156 187.644531 C 182.410156 187.675781 182.660156 187.703125 182.910156 187.726562 C 182.949219 187.734375 182.988281 187.742188 183.03125 187.742188 C 183.253906 187.765625 183.472656 187.789062 183.695312 187.820312 C 183.738281 187.828125 183.777344 187.828125 183.816406 187.828125 C 184.050781 187.863281 184.285156 187.902344 184.523438 187.941406 C 184.597656 187.949219 184.667969 187.972656 184.75 187.984375 C 184.933594 188.015625 185.121094 188.054688 185.3125 188.078125 C 185.382812 188.085938 185.449219 188.109375 185.519531 188.117188 C 185.738281 188.160156 185.945312 188.199219 186.164062 188.253906 C 186.253906 188.273438 186.347656 188.296875 186.4375 188.3125 C 186.621094 188.351562 186.808594 188.390625 186.984375 188.433594 C 187.097656 188.464844 187.210938 188.480469 187.3125 188.511719 C 187.472656 188.550781 187.636719 188.59375 187.796875 188.640625 C 187.898438 188.664062 188.003906 188.6875 188.109375 188.722656 C 188.316406 188.769531 188.527344 188.824219 188.746094 188.898438 C 188.824219 188.921875 188.90625 188.945312 188.992188 188.960938 C 189.152344 189.019531 189.316406 189.058594 189.476562 189.113281 C 189.5625 189.136719 189.652344 189.164062 189.742188 189.195312 C 189.957031 189.257812 190.183594 189.339844 190.398438 189.410156 C 190.472656 189.445312 190.535156 189.453125 190.601562 189.484375 C 190.800781 189.546875 191.003906 189.628906 191.203125 189.699219 C 191.242188 189.707031 191.285156 189.722656 191.324219 189.742188 C 191.582031 189.835938 191.847656 189.933594 192.105469 190.039062 C 192.105469 190.039062 192.113281 190.039062 192.113281 190.046875 C 192.378906 190.148438 192.640625 190.253906 192.90625 190.367188 L 192.914062 190.375 C 193.203125 190.496094 193.503906 190.632812 193.785156 190.761719 C 193.800781 190.769531 193.824219 190.769531 193.847656 190.792969 C 193.855469 190.792969 193.863281 190.792969 193.871094 190.800781 C 194.136719 190.921875 194.402344 191.050781 194.667969 191.175781 C 194.730469 191.210938 194.8125 191.25 194.917969 191.304688 L 194.917969 191.296875 C 195.125 191.410156 195.328125 191.507812 195.527344 191.609375 C 195.808594 191.761719 196.082031 191.914062 196.347656 192.070312 C 196.371094 192.085938 196.386719 192.101562 196.410156 192.109375 C 196.574219 192.203125 196.726562 192.292969 196.878906 192.382812 C 196.957031 192.4375 197.03125 192.476562 197.109375 192.527344 L 197.109375 192.535156 C 197.109375 192.535156 197.109375 192.535156 197.117188 192.535156 C 197.246094 192.613281 197.382812 192.703125 197.511719 192.78125 C 197.59375 192.832031 197.679688 192.886719 197.761719 192.941406 C 197.90625 193.03125 198.042969 193.128906 198.1875 193.222656 C 198.324219 193.320312 198.460938 193.410156 198.597656 193.503906 C 198.863281 193.699219 199.128906 193.890625 199.378906 194.089844 C 199.507812 194.1875 199.625 194.285156 199.746094 194.378906 C 200.117188 194.675781 200.460938 194.972656 200.792969 195.277344 C 203.097656 197.40625 204.503906 199.695312 205.203125 202.007812 C 206.082031 204.945312 205.824219 207.976562 204.5625 210.898438 C 204.554688 210.925781 204.539062 210.964844 204.519531 210.988281 C 204.503906 211.019531 204.496094 211.058594 204.472656 211.085938 C 204.25 211.597656 203.992188 212.113281 203.695312 212.609375 C 203.292969 213.316406 202.890625 213.894531 202.40625 214.488281 C 197.304688 214.953125 191.992188 215.195312 186.535156 215.195312 C 184.308594 215.195312 182.105469 215.15625 179.925781 215.074219 C 179.527344 214.777344 179.195312 214.496094 178.65625 214.078125 C 178.070312 213.628906 177.492188 213.148438 176.929688 212.65625 C 176.816406 212.5625 176.695312 212.449219 176.582031 212.351562 L 176.261719 212.046875 C 175.972656 211.789062 175.699219 211.527344 175.425781 211.261719 C 175.378906 211.222656 175.328125 211.164062 175.289062 211.125 C 175.242188 211.085938 175.191406 211.027344 175.144531 210.980469 C 175.03125 210.867188 174.921875 210.753906 174.808594 210.636719 C 174.726562 210.554688 174.65625 210.484375 174.582031 210.402344 C 174.453125 210.28125 174.332031 210.144531 174.210938 210.007812 C 174.148438 209.945312 174.085938 209.871094 174.019531 209.800781 C 173.890625 209.65625 173.761719 209.511719 173.632812 209.375 C 173.585938 209.320312 173.53125 209.246094 173.480469 209.199219 C 173.328125 209.023438 173.175781 208.84375 173.03125 208.675781 C 173 208.628906 172.976562 208.605469 172.941406 208.5625 C 172.804688 208.394531 172.667969 208.234375 172.539062 208.066406 C 172.507812 208.027344 172.476562 207.984375 172.445312 207.953125 C 172.125 207.550781 171.808594 207.144531 171.511719 206.726562 C 171.503906 206.71875 171.496094 206.695312 171.488281 206.6875 C 171.335938 206.46875 171.183594 206.261719 171.039062 206.042969 C 170.652344 205.480469 170.289062 204.910156 169.960938 204.351562 C 169.335938 203.28125 168.804688 202.207031 168.386719 201.164062 L 168.394531 201.164062 C 167.960938 200.078125 167.636719 199.019531 167.453125 198.015625 C 167.445312 198.007812 167.445312 197.984375 167.445312 197.976562 C 167.414062 197.832031 167.390625 197.695312 167.371094 197.550781 C 167.210938 196.460938 167.203125 195.421875 167.363281 194.484375 L 167.363281 194.46875 C 167.484375 193.714844 167.710938 193.023438 168.039062 192.375 C 168.089844 192.277344 168.144531 192.1875 168.191406 192.09375 C 168.257812 191.996094 168.304688 191.898438 168.371094 191.8125 C 170.210938 188.976562 174.382812 187.484375 179.589844 187.5 Z M 150.003906 188.464844 C 149.84375 190.335938 149.546875 192.222656 149.070312 194.105469 C 144.332031 197.140625 141.074219 202.304688 140.671875 208.226562 C 140.625 208.21875 140.570312 208.1875 140.511719 208.179688 C 140.503906 208.148438 140.503906 208.121094 140.496094 208.089844 L 140.015625 206.308594 L 137.910156 198.464844 L 146.796875 189.128906 C 146.949219 189.171875 147.101562 189.179688 147.265625 189.171875 C 147.3125 189.164062 147.359375 189.164062 147.417969 189.15625 C 147.464844 189.148438 147.511719 189.148438 147.5625 189.128906 C 147.570312 189.128906 147.570312 189.128906 147.578125 189.121094 Z M 254.648438 192.597656 C 254.207031 193.328125 253.726562 194.035156 253.195312 194.734375 C 253.035156 194.355469 252.859375 193.980469 252.664062 193.617188 L 252.65625 193.609375 C 253.371094 193.289062 254.03125 192.953125 254.648438 192.597656 Z M 158.910156 194.308594 C 159.070312 194.308594 159.222656 194.308594 159.375 194.316406 C 159.40625 194.316406 159.433594 194.316406 159.457031 194.316406 C 159.578125 194.324219 159.6875 194.332031 159.808594 194.332031 C 159.859375 194.332031 159.90625 194.332031 159.953125 194.339844 C 159.960938 194.339844 159.960938 194.339844 159.960938 194.339844 C 161.441406 194.460938 162.847656 194.820312 164.183594 195.320312 C 164.140625 196.097656 164.175781 196.875 164.277344 197.671875 C 164.285156 197.792969 164.304688 197.902344 164.320312 198.023438 C 164.320312 198.03125 164.328125 198.039062 164.328125 198.039062 C 162.648438 197.246094 160.804688 196.78125 158.910156 196.78125 C 151.917969 196.78125 146.210938 202.472656 146.210938 209.453125 C 146.210938 209.632812 146.21875 209.808594 146.226562 209.984375 C 145.375 209.734375 144.539062 209.488281 143.71875 209.230469 C 143.71875 209.199219 143.71875 209.191406 143.71875 209.167969 C 143.726562 209.117188 143.726562 209.078125 143.726562 209.054688 C 143.871094 203.644531 146.847656 198.964844 151.21875 196.386719 C 151.265625 196.363281 151.316406 196.339844 151.355469 196.296875 C 153.582031 195.03125 156.160156 194.300781 158.910156 194.300781 Z M 257.140625 194.371094 C 253.210938 232.773438 222.21875 258.339844 186.535156 258.339844 C 150.277344 258.339844 120.402344 231.234375 116.121094 196.210938 C 116.859375 197.214844 117.703125 198.183594 118.652344 199.132812 C 122.515625 203 127.980469 206.378906 134.675781 209.214844 C 148.027344 214.855469 166.28125 218.300781 186.429688 218.316406 C 186.460938 218.316406 186.5 218.316406 186.535156 218.316406 C 206.714844 218.316406 225.015625 215.144531 238.421875 209.140625 C 246.835938 205.386719 253.414062 200.410156 257.140625 194.371094 Z M 191.378906 196.628906 C 191.164062 196.628906 190.945312 196.636719 190.730469 196.652344 C 187.875 196.851562 185.160156 198.410156 183.625 201.058594 C 181.179688 205.304688 182.667969 210.773438 186.925781 213.234375 C 191.179688 215.691406 196.667969 214.246094 199.113281 210 C 201.554688 205.761719 200.070312 200.296875 195.816406 197.832031 C 194.417969 197.027344 192.890625 196.636719 191.378906 196.636719 Z M 191.210938 199.6875 C 191.492188 199.6875 191.773438 199.703125 192.054688 199.734375 C 192.8125 199.824219 193.566406 200.070312 194.265625 200.480469 C 197.085938 202.109375 198.042969 205.660156 196.4375 208.453125 C 194.828125 211.246094 191.292969 212.183594 188.472656 210.554688 C 185.648438 208.925781 184.695312 205.378906 186.300781 202.582031 C 187.363281 200.753906 189.242188 199.71875 191.210938 199.6875 Z M 158.910156 199.871094 C 161.433594 199.871094 163.84375 200.867188 165.636719 202.625 C 166.101562 203.730469 166.65625 204.839844 167.300781 205.9375 C 167.621094 206.484375 167.960938 207.03125 168.320312 207.5625 C 168.457031 208.195312 168.523438 208.835938 168.523438 209.480469 C 168.523438 210.136719 168.457031 210.789062 168.328125 211.40625 C 168.199219 212.03125 168.015625 212.632812 167.773438 213.203125 C 167.636719 213.523438 167.484375 213.835938 167.316406 214.136719 C 166.914062 214.09375 166.519531 214.039062 166.121094 213.992188 C 166.632812 210.042969 164.292969 206.210938 160.445312 205.335938 C 159.929688 205.214844 159.40625 205.160156 158.902344 205.160156 C 155.382812 205.128906 152.167969 207.671875 151.1875 211.300781 C 150.582031 211.15625 149.988281 211.011719 149.402344 210.859375 C 149.328125 210.410156 149.296875 209.945312 149.296875 209.472656 C 149.296875 204.15625 153.582031 199.878906 158.910156 199.878906 Z M 158.863281 208.234375 C 159.167969 208.234375 159.464844 208.28125 159.761719 208.332031 C 161.972656 208.835938 163.410156 211.042969 163.074219 213.566406 C 160.011719 213.117188 157.046875 212.585938 154.191406 211.976562 C 154.867188 209.695312 156.835938 208.226562 158.863281 208.234375 Z M 171.398438 211.535156 C 171.945312 212.144531 172.515625 212.746094 173.105469 213.332031 L 173.128906 213.355469 C 173.230469 213.460938 173.34375 213.574219 173.457031 213.675781 C 173.359375 214.023438 173.265625 214.367188 173.152344 214.703125 C 172.292969 214.640625 171.433594 214.558594 170.578125 214.480469 C 170.589844 214.449219 170.605469 214.425781 170.613281 214.398438 C 170.933594 213.636719 171.183594 212.84375 171.351562 212.015625 C 171.390625 211.855469 171.382812 211.6875 171.398438 211.527344 Z M 245.457031 214.519531 C 244.835938 214.519531 244.273438 214.890625 244.03125 215.460938 C 243.285156 217.144531 242.441406 218.789062 241.507812 220.378906 C 240.425781 222.160156 243.140625 223.75 244.167969 221.9375 C 245.15625 220.25 246.058594 218.5 246.855469 216.703125 C 247.320312 215.683594 246.582031 214.519531 245.457031 214.519531 Z M 239.742188 224.335938 C 239.234375 224.328125 238.753906 224.5625 238.453125 224.972656 C 237.355469 226.449219 236.164062 227.871094 234.910156 229.226562 C 233.648438 230.582031 232.3125 231.882812 230.90625 233.117188 C 225.289062 238.054688 218.554688 241.964844 211.097656 244.644531 C 209.160156 245.34375 210.203125 248.234375 212.140625 247.542969 C 219.9375 244.742188 227.019531 240.640625 232.949219 235.429688 C 234.429688 234.128906 235.84375 232.757812 237.167969 231.320312 C 238.503906 229.882812 239.757812 228.382812 240.929688 226.816406 C 241.695312 225.8125 241.003906 224.371094 239.742188 224.335938 Z M 239.742188 224.335938 " fill-opacity="1" fill-rule="nonzero"/></g><g fill="#464c4c" fill-opacity="1"><g transform="translate(137.918977, 272.713)"><g><path d="M -11.21875 -3.234375 L -4.8125 1.203125 L -1.296875 -0.890625 L -0.03125 -0.03125 L -13.265625 7.84375 L -14.46875 7.015625 L -11.75 -8.140625 L -10.46875 -7.25 Z M -11.453125 -1.921875 L -12.984375 6.15625 L -5.9375 1.90625 Z M -11.453125 -1.921875 "/></g></g></g><g fill="#464c4c" fill-opacity="1"><g transform="translate(126.102867, 264.638104)"><g><path d="M -11.328125 8.546875 L -15.4375 4.609375 C -16.507812 3.585938 -17.25 2.46875 -17.65625 1.25 C -18.0625 0.0390625 -18.125 -1.160156 -17.84375 -2.359375 C -17.570312 -3.554688 -16.96875 -4.648438 -16.03125 -5.640625 C -15.082031 -6.628906 -14.015625 -7.285156 -12.828125 -7.609375 C -11.648438 -7.941406 -10.445312 -7.929688 -9.21875 -7.578125 C -7.988281 -7.222656 -6.835938 -6.535156 -5.765625 -5.515625 L -1.65625 -1.578125 Z M -6.609375 -4.546875 C -7.484375 -5.378906 -8.421875 -5.9375 -9.421875 -6.21875 C -10.421875 -6.507812 -11.398438 -6.519531 -12.359375 -6.25 C -13.316406 -5.976562 -14.1875 -5.4375 -14.96875 -4.625 C -15.738281 -3.8125 -16.238281 -2.921875 -16.46875 -1.953125 C -16.695312 -0.984375 -16.644531 -0.00390625 -16.3125 0.984375 C -15.976562 1.972656 -15.375 2.882812 -14.5 3.71875 L -11.5 6.578125 L -3.609375 -1.6875 Z M -6.609375 -4.546875 "/></g></g></g><g fill="#464c4c" fill-opacity="1"><g transform="translate(114.220412, 253.312048)"><g><path d="M -4.921875 -6.828125 C -4.085938 -5.703125 -3.582031 -4.503906 -3.40625 -3.234375 C -3.226562 -1.960938 -3.382812 -0.753906 -3.875 0.390625 C -4.375 1.546875 -5.164062 2.523438 -6.25 3.328125 C -7.320312 4.128906 -8.476562 4.597656 -9.71875 4.734375 C -10.96875 4.878906 -12.175781 4.6875 -13.34375 4.15625 C -14.507812 3.625 -15.507812 2.796875 -16.34375 1.671875 C -17.164062 0.566406 -17.660156 -0.609375 -17.828125 -1.859375 C -18.003906 -3.117188 -17.847656 -4.332031 -17.359375 -5.5 C -16.867188 -6.664062 -16.085938 -7.648438 -15.015625 -8.453125 C -13.929688 -9.253906 -12.757812 -9.71875 -11.5 -9.84375 C -10.238281 -9.976562 -9.03125 -9.785156 -7.875 -9.265625 C -6.726562 -8.742188 -5.742188 -7.929688 -4.921875 -6.828125 Z M -5.984375 -6.03125 C -6.640625 -6.914062 -7.429688 -7.566406 -8.359375 -7.984375 C -9.296875 -8.398438 -10.269531 -8.546875 -11.28125 -8.421875 C -12.300781 -8.304688 -13.253906 -7.925781 -14.140625 -7.28125 C -15.015625 -6.625 -15.648438 -5.828125 -16.046875 -4.890625 C -16.453125 -3.953125 -16.585938 -2.972656 -16.453125 -1.953125 C -16.328125 -0.941406 -15.9375 0.00390625 -15.28125 0.890625 C -14.613281 1.785156 -13.8125 2.441406 -12.875 2.859375 C -11.945312 3.273438 -10.972656 3.425781 -9.953125 3.3125 C -8.929688 3.207031 -7.984375 2.828125 -7.109375 2.171875 C -6.222656 1.523438 -5.582031 0.726562 -5.1875 -0.21875 C -4.789062 -1.164062 -4.65625 -2.144531 -4.78125 -3.15625 C -4.914062 -4.175781 -5.316406 -5.132812 -5.984375 -6.03125 Z M -5.984375 -6.03125 "/></g></g></g><g fill="#464c4c" fill-opacity="1"><g transform="translate(104.308735, 239.832121)"><g><path d="M -15.890625 -0.1875 C -16.710938 -1.78125 -16.976562 -3.21875 -16.6875 -4.5 C -16.40625 -5.789062 -15.601562 -6.785156 -14.28125 -7.484375 C -12.957031 -8.171875 -11.6875 -8.257812 -10.46875 -7.75 C -9.25 -7.25 -8.226562 -6.203125 -7.40625 -4.609375 L -5.65625 -1.296875 L -1.734375 -3.34375 L -1.0625 -2.015625 L -13.46875 4.453125 Z M -8.53125 -4 C -9.164062 -5.226562 -9.921875 -6.023438 -10.796875 -6.390625 C -11.679688 -6.765625 -12.613281 -6.695312 -13.59375 -6.1875 C -14.601562 -5.65625 -15.207031 -4.921875 -15.40625 -3.984375 C -15.601562 -3.054688 -15.382812 -1.976562 -14.75 -0.75 L -13.015625 2.546875 L -6.796875 -0.703125 Z M -8.53125 -4 "/></g></g></g><g fill="#464c4c" fill-opacity="1"><g transform="translate(97.711964, 226.958919)"><g><path d="M -13.65625 -0.375 L -11.984375 4.25 L -13.1875 4.6875 L -17.046875 -5.953125 L -15.84375 -6.390625 L -14.15625 -1.765625 L -2.203125 -6.09375 L -1.703125 -4.703125 Z M -13.65625 -0.375 "/></g></g></g><g fill="#464c4c" fill-opacity="1"><g transform="translate(93.699017, 216.044219)"><g><path d="M -3.90625 -11.609375 L -2.65625 -11.890625 L -0.5 -2.21875 L -14.171875 0.828125 L -16.25 -8.546875 L -14.984375 -8.828125 L -13.21875 -0.90625 L -8.359375 -1.984375 L -9.9375 -9.046875 L -8.71875 -9.328125 L -7.140625 -2.265625 L -2.0625 -3.390625 Z M -3.90625 -11.609375 "/></g></g></g><g fill="#464c4c" fill-opacity="1"><g transform="translate(90.923387, 202.618521)"><g/></g></g><g fill="#464c4c" fill-opacity="1"><g transform="translate(90.039784, 197.125742)"><g><path d="M -3.9375 -11 L -3.796875 -3.203125 L -0.03125 -1.578125 L 0 -0.046875 L -14.109375 -6.1875 L -14.140625 -7.65625 L -0.25 -14.296875 L -0.21875 -12.734375 Z M -5.125 -10.421875 L -12.578125 -6.9375 L -5 -3.703125 Z M -5.125 -10.421875 "/></g></g></g><g fill="#464c4c" fill-opacity="1"><g transform="translate(90.027176, 182.488575)"><g/></g></g><g fill="#464c4c" fill-opacity="1"><g transform="translate(90.283852, 176.929657)"><g><path d="M -12.34375 -10 C -12.007812 -11.757812 -11.328125 -13.054688 -10.296875 -13.890625 C -9.265625 -14.722656 -8.019531 -15 -6.5625 -14.71875 C -5.082031 -14.4375 -4.023438 -13.71875 -3.390625 -12.5625 C -2.753906 -11.414062 -2.601562 -9.960938 -2.9375 -8.203125 L -3.640625 -4.53125 L 0.703125 -3.703125 L 0.421875 -2.234375 L -13.328125 -4.859375 Z M -4.203125 -8.421875 C -3.941406 -9.785156 -4.039062 -10.882812 -4.5 -11.71875 C -4.96875 -12.5625 -5.75 -13.082031 -6.84375 -13.28125 C -7.957031 -13.5 -8.878906 -13.300781 -9.609375 -12.6875 C -10.335938 -12.082031 -10.832031 -11.097656 -11.09375 -9.734375 L -11.796875 -6.09375 L -4.90625 -4.78125 Z M -4.203125 -8.421875 "/></g></g></g><g fill="#464c4c" fill-opacity="1"><g transform="translate(93.088393, 162.744909)"><g><path d="M -12.5625 -6.609375 L -12.078125 -8.03125 L -0.015625 -3.984375 L 2.46875 -11.40625 L 3.6875 -11 L 0.71875 -2.15625 Z M -12.5625 -6.609375 "/></g></g></g><g fill="#464c4c" fill-opacity="1"><g transform="translate(96.79238, 151.444363)"><g><path d="M 1.546875 -11.578125 L -1.90625 -4.578125 L 0.703125 -1.421875 L 0.015625 -0.046875 L -9.71875 -11.96875 L -9.0625 -13.28125 L 6.3125 -12.828125 L 5.625 -11.421875 Z M 0.21875 -11.625 L -8.015625 -11.921875 L -2.75 -5.59375 Z M 0.21875 -11.625 "/></g></g></g><g fill="#464c4c" fill-opacity="1"><g transform="translate(103.048785, 138.5645)"><g><path d="M -3.40625 -19.5 L 8.046875 -11.4375 L 7.34375 -10.4375 L -7.109375 -9.625 L 2.171875 -3.078125 L 1.3125 -1.859375 L -10.140625 -9.921875 L -9.4375 -10.921875 L 5.046875 -11.75 L -4.25 -18.296875 Z M -3.40625 -19.5 "/></g></g></g><g fill="#464c4c" fill-opacity="1"><g transform="translate(112.577521, 125.333509)"><g><path d="M -5.828125 -12.359375 L -9.203125 -8.78125 L -10.140625 -9.65625 L -2.359375 -17.890625 L -1.421875 -17.015625 L -4.796875 -13.4375 L 4.453125 -4.71875 L 3.421875 -3.640625 Z M -5.828125 -12.359375 "/></g></g></g><g fill="#464c4c" fill-opacity="1"><g transform="translate(120.83128, 116.801757)"><g/></g></g><g fill="#464c4c" fill-opacity="1"><g transform="translate(124.811806, 112.940376)"><g><path d="M 4.84375 -12.3125 C 5.71875 -12.695312 6.53125 -12.789062 7.28125 -12.59375 C 8.03125 -12.394531 8.675781 -11.914062 9.21875 -11.15625 C 9.914062 -10.175781 10.085938 -9.164062 9.734375 -8.125 C 9.390625 -7.082031 8.507812 -6.0625 7.09375 -5.0625 L 1.859375 -1.328125 L -6.265625 -12.734375 L -1.359375 -16.234375 C -0.0859375 -17.140625 1.078125 -17.582031 2.140625 -17.5625 C 3.210938 -17.550781 4.082031 -17.078125 4.75 -16.140625 C 5.195312 -15.503906 5.421875 -14.859375 5.421875 -14.203125 C 5.421875 -13.546875 5.226562 -12.914062 4.84375 -12.3125 Z M -4.359375 -12.59375 L -1.40625 -8.46875 L 2.21875 -11.046875 C 3.144531 -11.703125 3.734375 -12.382812 3.984375 -13.09375 C 4.234375 -13.800781 4.117188 -14.488281 3.640625 -15.15625 C 3.160156 -15.84375 2.539062 -16.179688 1.78125 -16.171875 C 1.03125 -16.160156 0.191406 -15.828125 -0.734375 -15.171875 Z M 6.390625 -6.046875 C 7.398438 -6.773438 8.039062 -7.492188 8.3125 -8.203125 C 8.59375 -8.921875 8.472656 -9.648438 7.953125 -10.390625 C 6.929688 -11.816406 5.390625 -11.796875 3.328125 -10.328125 L -0.703125 -7.46875 L 2.359375 -3.1875 Z M 6.390625 -6.046875 "/></g></g></g><g fill="#464c4c" fill-opacity="1"><g transform="translate(137.114159, 104.210657)"><g><path d="M 8.1875 -8.328125 L 1.21875 -4.796875 L 1.40625 -0.71875 L 0.046875 -0.015625 L -0.578125 -15.390625 L 0.71875 -16.0625 L 12.75 -6.453125 L 11.359375 -5.75 Z M 7.140625 -9.15625 L 0.765625 -14.34375 L 1.15625 -6.125 Z M 7.140625 -9.15625 "/></g></g></g><g fill="#464c4c" fill-opacity="1"><g transform="translate(150.017206, 97.76055)"><g><path d="M 5.859375 -1.875 C 4.867188 -1.53125 3.867188 -1.363281 2.859375 -1.375 C 1.847656 -1.382812 1.003906 -1.566406 0.328125 -1.921875 L 0.515625 -3.1875 C 1.160156 -2.875 1.925781 -2.703125 2.8125 -2.671875 C 3.707031 -2.648438 4.582031 -2.785156 5.4375 -3.078125 C 6.613281 -3.484375 7.425781 -4.003906 7.875 -4.640625 C 8.320312 -5.285156 8.421875 -5.957031 8.171875 -6.65625 C 7.992188 -7.175781 7.6875 -7.535156 7.25 -7.734375 C 6.820312 -7.941406 6.347656 -8.050781 5.828125 -8.0625 C 5.304688 -8.070312 4.59375 -8.035156 3.6875 -7.953125 C 2.601562 -7.867188 1.726562 -7.835938 1.0625 -7.859375 C 0.394531 -7.890625 -0.226562 -8.070312 -0.8125 -8.40625 C -1.40625 -8.75 -1.84375 -9.328125 -2.125 -10.140625 C -2.363281 -10.804688 -2.398438 -11.472656 -2.234375 -12.140625 C -2.066406 -12.804688 -1.675781 -13.429688 -1.0625 -14.015625 C -0.445312 -14.597656 0.398438 -15.078125 1.484375 -15.453125 C 2.234375 -15.710938 3.003906 -15.859375 3.796875 -15.890625 C 4.597656 -15.929688 5.332031 -15.863281 6 -15.6875 L 5.90625 -14.40625 C 5.226562 -14.582031 4.539062 -14.648438 3.84375 -14.609375 C 3.15625 -14.578125 2.507812 -14.457031 1.90625 -14.25 C 0.738281 -13.851562 -0.0625 -13.328125 -0.5 -12.671875 C -0.9375 -12.023438 -1.03125 -11.347656 -0.78125 -10.640625 C -0.601562 -10.117188 -0.296875 -9.75 0.140625 -9.53125 C 0.585938 -9.320312 1.078125 -9.210938 1.609375 -9.203125 C 2.148438 -9.203125 2.867188 -9.238281 3.765625 -9.3125 C 4.816406 -9.425781 5.679688 -9.46875 6.359375 -9.4375 C 7.046875 -9.414062 7.675781 -9.238281 8.25 -8.90625 C 8.820312 -8.582031 9.25 -8.015625 9.53125 -7.203125 C 9.757812 -6.535156 9.785156 -5.863281 9.609375 -5.1875 C 9.441406 -4.519531 9.046875 -3.894531 8.421875 -3.3125 C 7.796875 -2.726562 6.941406 -2.25 5.859375 -1.875 Z M 5.859375 -1.875 "/></g></g></g><g fill="#464c4c" fill-opacity="1"><g transform="translate(161.752376, 93.686995)"><g><path d="M 11.703125 -3.671875 L 11.953125 -2.421875 L 2.234375 -0.453125 L -0.546875 -14.171875 L 8.859375 -16.078125 L 9.125 -14.828125 L 1.171875 -13.21875 L 2.15625 -8.328125 L 9.25 -9.765625 L 9.5 -8.546875 L 2.40625 -7.109375 L 3.4375 -2 Z M 11.703125 -3.671875 "/></g></g></g><g fill="#464c4c" fill-opacity="1"><g transform="translate(174.84542, 90.91584)"><g><path d="M 1.625 -14.09375 L 7.3125 -14.359375 C 8.789062 -14.429688 10.109375 -14.195312 11.265625 -13.65625 C 12.421875 -13.113281 13.335938 -12.328125 14.015625 -11.296875 C 14.703125 -10.273438 15.078125 -9.085938 15.140625 -7.734375 C 15.203125 -6.367188 14.941406 -5.140625 14.359375 -4.046875 C 13.785156 -2.960938 12.945312 -2.097656 11.84375 -1.453125 C 10.738281 -0.804688 9.445312 -0.445312 7.96875 -0.375 L 2.28125 -0.109375 Z M 7.828125 -1.65625 C 9.046875 -1.707031 10.101562 -2 11 -2.53125 C 11.90625 -3.0625 12.585938 -3.765625 13.046875 -4.640625 C 13.515625 -5.523438 13.722656 -6.53125 13.671875 -7.65625 C 13.617188 -8.769531 13.316406 -9.742188 12.765625 -10.578125 C 12.222656 -11.421875 11.476562 -12.0625 10.53125 -12.5 C 9.59375 -12.9375 8.515625 -13.128906 7.296875 -13.078125 L 3.171875 -12.875 L 3.703125 -1.453125 Z M 7.828125 -1.65625 "/></g></g></g><g fill="#464c4c" fill-opacity="1"><g transform="translate(191.582884, 90.463901)"><g/></g></g><g fill="#464c4c" fill-opacity="1"><g transform="translate(197.214686, 90.707401)"><g><path d="M 4.4375 -13.46875 L 5.90625 -13.234375 L 3.921875 -0.671875 L 11.65625 0.546875 L 11.453125 1.8125 L 2.25 0.359375 Z M 4.4375 -13.46875 "/></g></g></g><g fill="#464c4c" fill-opacity="1"><g transform="translate(209.174837, 92.757596)"><g><path d="M 5.703125 -13 L 7.140625 -12.625 L 3.640625 0.9375 L 2.203125 0.5625 Z M 5.703125 -13 "/></g></g></g><g fill="#464c4c" fill-opacity="1"><g transform="translate(215.39466, 94.212008)"><g><path d="M 7.90625 -10.640625 L 6.015625 -5.484375 L 12.8125 -3 L 12.375 -1.796875 L 5.578125 -4.28125 L 3.53125 1.296875 L 2.140625 0.78125 L 6.953125 -12.359375 L 15.96875 -9.0625 L 15.53125 -7.859375 Z M 7.90625 -10.640625 "/></g></g></g><g fill="#464c4c" fill-opacity="1"><g transform="translate(227.391029, 98.584962)"><g><path d="M 11.375 4.546875 L 10.78125 5.6875 L 2.015625 1.0625 L 8.546875 -11.328125 L 17.03125 -6.859375 L 16.4375 -5.71875 L 9.265625 -9.5 L 6.9375 -5.09375 L 13.34375 -1.71875 L 12.765625 -0.609375 L 6.359375 -3.984375 L 3.921875 0.609375 Z M 11.375 4.546875 "/></g></g></g><g fill="#464c4c" fill-opacity="1"><g transform="translate(239.31013, 104.916587)"><g><path d="M 4.921875 3.671875 C 4.078125 3.066406 3.363281 2.347656 2.78125 1.515625 C 2.195312 0.691406 1.851562 -0.09375 1.75 -0.84375 L 2.875 -1.4375 C 3 -0.71875 3.3125 0.00390625 3.8125 0.734375 C 4.3125 1.472656 4.925781 2.101562 5.65625 2.625 C 6.675781 3.34375 7.578125 3.695312 8.359375 3.6875 C 9.140625 3.6875 9.742188 3.382812 10.171875 2.78125 C 10.492188 2.332031 10.609375 1.867188 10.515625 1.390625 C 10.429688 0.921875 10.238281 0.46875 9.9375 0.03125 C 9.644531 -0.394531 9.203125 -0.945312 8.609375 -1.625 C 7.910156 -2.457031 7.375 -3.15625 7 -3.71875 C 6.632812 -4.28125 6.414062 -4.898438 6.34375 -5.578125 C 6.28125 -6.253906 6.5 -6.941406 7 -7.640625 C 7.40625 -8.222656 7.929688 -8.640625 8.578125 -8.890625 C 9.222656 -9.140625 9.957031 -9.179688 10.78125 -9.015625 C 11.601562 -8.859375 12.484375 -8.445312 13.421875 -7.78125 C 14.078125 -7.320312 14.648438 -6.78125 15.140625 -6.15625 C 15.640625 -5.53125 16.007812 -4.898438 16.25 -4.265625 L 15.15625 -3.59375 C 14.90625 -4.238281 14.5625 -4.832031 14.125 -5.375 C 13.6875 -5.925781 13.207031 -6.382812 12.6875 -6.75 C 11.6875 -7.46875 10.796875 -7.8125 10.015625 -7.78125 C 9.242188 -7.757812 8.640625 -7.441406 8.203125 -6.828125 C 7.878906 -6.378906 7.753906 -5.910156 7.828125 -5.421875 C 7.910156 -4.941406 8.109375 -4.484375 8.421875 -4.046875 C 8.742188 -3.609375 9.191406 -3.050781 9.765625 -2.375 C 10.460938 -1.570312 11 -0.882812 11.375 -0.3125 C 11.75 0.25 11.972656 0.859375 12.046875 1.515625 C 12.117188 2.179688 11.90625 2.863281 11.40625 3.5625 C 11 4.132812 10.472656 4.546875 9.828125 4.796875 C 9.179688 5.054688 8.4375 5.097656 7.59375 4.921875 C 6.75 4.742188 5.859375 4.328125 4.921875 3.671875 Z M 4.921875 3.671875 "/></g></g></g><g fill="#464c4c" fill-opacity="1"><g transform="translate(249.461361, 112.169321)"><g><path d="M 12.265625 -6.015625 L 8.640625 -9.34375 L 9.515625 -10.28125 L 17.875 -2.625 L 17 -1.6875 L 13.359375 -5.015625 L 4.78125 4.375 L 3.6875 3.375 Z M 12.265625 -6.015625 "/></g></g></g><g fill="#464c4c" fill-opacity="1"><g transform="translate(258.076137, 120.009242)"><g><path d="M 8.28125 2.25 L 4.59375 5.390625 L 3.640625 4.28125 L 7.328125 1.140625 L 10.671875 -9.0625 L 11.6875 -7.859375 L 8.828125 0.890625 L 17.921875 -0.546875 L 18.875 0.578125 Z M 8.28125 2.25 "/></g></g></g><g fill="#464c4c" fill-opacity="1"><g transform="translate(266.375245, 129.829057)"><g><path d="M 12.96875 -5.75 L 13.78125 -4.5 L 3.140625 2.453125 L 7.421875 9 L 6.34375 9.703125 L 1.25 1.90625 Z M 12.96875 -5.75 "/></g></g></g><g fill="#464c4c" fill-opacity="1"><g transform="translate(272.927558, 139.781302)"><g><path d="M 6.4375 10.421875 L 5.28125 10.984375 L 0.984375 2.0625 L 13.59375 -4.015625 L 17.765625 4.625 L 16.609375 5.1875 L 13.09375 -2.125 L 8.609375 0.03125 L 11.734375 6.546875 L 10.609375 7.09375 L 7.484375 0.578125 L 2.796875 2.828125 Z M 6.4375 10.421875 "/></g></g></g></svg>