<svg xmlns="http://www.w3.org/2000/svg" xmlns:xlink="http://www.w3.org/1999/xlink" width="500" zoomAndPan="magnify" viewBox="0 0 375 374.999991" height="500" preserveAspectRatio="xMidYMid meet" version="1.0"><defs><g/></defs><g fill="#000000" fill-opacity="1"><g transform="translate(33.55999, 202.005713)"><g><path d="M 9.578125 -39.359375 L 9.578125 -3.078125 L 15.0625 -1.03125 L 15.0625 0 L 2.046875 0 L 2.046875 -1.03125 L 7.53125 -3.078125 L 7.53125 -45.859375 L 3.421875 -46.890625 L 3.421875 -47.921875 L 11.984375 -47.921875 C 14.347656 -47.921875 16.226562 -47.425781 17.625 -46.4375 C 19.019531 -45.457031 20.21875 -44.007812 21.21875 -42.09375 L 36.140625 -13.546875 L 47.578125 -42.09375 C 48.347656 -44.101562 49.394531 -45.578125 50.71875 -46.515625 C 52.039062 -47.453125 54.070312 -47.921875 56.8125 -47.921875 L 64 -47.921875 L 64 -46.890625 L 59.890625 -45.859375 L 59.890625 -2.046875 L 64 -1.03125 L 64 0 L 44.5 0 L 44.5 -1.03125 L 48.609375 -2.046875 L 48.609375 -39.359375 L 32.515625 0.6875 L 30.46875 0.6875 Z M 9.578125 -39.359375 "/></g></g></g><g fill="#000000" fill-opacity="1"><g transform="translate(100.977608, 202.005713)"><g><path d="M 21.21875 1.03125 C 15.375 1.03125 10.832031 -0.578125 7.59375 -3.796875 C 4.351562 -7.015625 2.734375 -11.453125 2.734375 -17.109375 C 2.734375 -20.804688 3.441406 -24.023438 4.859375 -26.765625 C 6.273438 -29.503906 8.25 -31.601562 10.78125 -33.0625 C 13.3125 -34.519531 16.222656 -35.25 19.515625 -35.25 C 22.796875 -35.25 25.679688 -34.632812 28.171875 -33.40625 C 30.660156 -32.175781 32.578125 -30.519531 33.921875 -28.4375 C 35.265625 -26.363281 35.9375 -24.070312 35.9375 -21.5625 C 35.9375 -20.414062 35.820312 -19.4375 35.59375 -18.625 L 35.25 -17.453125 C 33.289062 -17.046875 31.171875 -16.703125 28.890625 -16.421875 C 24.097656 -15.742188 19.257812 -15.40625 14.375 -15.40625 C 14.375 -10.113281 15.101562 -6.335938 16.5625 -4.078125 C 18.019531 -1.816406 20.03125 -0.6875 22.59375 -0.6875 C 24.375 -0.6875 26.023438 -1.109375 27.546875 -1.953125 C 29.078125 -2.796875 30.285156 -3.910156 31.171875 -5.296875 C 32.066406 -6.691406 32.515625 -8.117188 32.515625 -9.578125 L 34.21875 -9.578125 C 34.21875 -7.753906 33.671875 -6.019531 32.578125 -4.375 C 31.484375 -2.738281 29.953125 -1.425781 27.984375 -0.4375 C 26.023438 0.539062 23.769531 1.03125 21.21875 1.03125 Z M 14.375 -17.109375 C 17.289062 -17.109375 19.664062 -17.222656 21.5 -17.453125 C 22.269531 -17.503906 23.085938 -17.617188 23.953125 -17.796875 C 24.003906 -18.023438 24.117188 -18.523438 24.296875 -19.296875 C 24.523438 -20.441406 24.640625 -21.65625 24.640625 -22.9375 C 24.640625 -26.71875 24.132812 -29.488281 23.125 -31.25 C 22.125 -33.007812 20.921875 -33.890625 19.515625 -33.890625 C 16.085938 -33.890625 14.375 -28.296875 14.375 -17.109375 Z M 14.375 -17.109375 "/></g></g></g><g fill="#000000" fill-opacity="1"><g transform="translate(139.306401, 202.005713)"><g><path d="M 16.09375 1.03125 C 12.03125 1.03125 8.898438 0.164062 6.703125 -1.5625 C 4.515625 -3.300781 3.421875 -5.519531 3.421875 -8.21875 C 3.421875 -10 3.8125 -11.753906 4.59375 -13.484375 C 4.90625 -14.304688 5.3125 -15.0625 5.8125 -15.75 C 7.6875 -16.195312 9.71875 -16.601562 11.90625 -16.96875 C 16.832031 -17.789062 21.191406 -18.296875 24.984375 -18.484375 L 24.984375 -20.53125 C 24.984375 -25.601562 24.363281 -29.097656 23.125 -31.015625 C 21.894531 -32.929688 20.003906 -33.890625 17.453125 -33.890625 C 16.492188 -33.890625 15.671875 -33.773438 14.984375 -33.546875 L 14.03125 -33.203125 L 14.03125 -22.9375 L 13.140625 -22.71875 C 12.410156 -22.632812 11.796875 -22.59375 11.296875 -22.59375 C 9.742188 -22.59375 8.5 -23.054688 7.5625 -23.984375 C 6.625 -24.921875 6.15625 -26.164062 6.15625 -27.71875 C 6.15625 -29.820312 7.21875 -31.601562 9.34375 -33.0625 C 11.46875 -34.519531 14.628906 -35.25 18.828125 -35.25 C 22.378906 -35.25 25.445312 -34.617188 28.03125 -33.359375 C 30.613281 -32.109375 32.578125 -30.375 33.921875 -28.15625 C 35.265625 -25.945312 35.9375 -23.40625 35.9375 -20.53125 L 35.9375 -2.046875 L 40.046875 -1.03125 L 40.046875 0 L 33.890625 0 C 31.148438 0 29.023438 -0.84375 27.515625 -2.53125 C 26.878906 -3.21875 26.378906 -4.085938 26.015625 -5.140625 C 25.367188 -3.992188 24.613281 -2.960938 23.75 -2.046875 C 21.695312 0.00390625 19.144531 1.03125 16.09375 1.03125 Z M 18.828125 -1.375 C 20.515625 -1.375 22.039062 -2.285156 23.40625 -4.109375 C 23.90625 -4.796875 24.429688 -5.707031 24.984375 -6.84375 L 24.984375 -16.765625 C 22.890625 -16.765625 20.882812 -16.648438 18.96875 -16.421875 C 17.550781 -16.242188 16.59375 -16.132812 16.09375 -16.09375 C 15.863281 -15.582031 15.632812 -14.894531 15.40625 -14.03125 C 14.945312 -12.300781 14.71875 -10.59375 14.71875 -8.90625 C 14.71875 -6.34375 15.101562 -4.445312 15.875 -3.21875 C 16.65625 -1.988281 17.640625 -1.375 18.828125 -1.375 Z M 18.828125 -1.375 "/></g></g></g><g fill="#000000" fill-opacity="1"><g transform="translate(180.715183, 202.005713)"><g><path d="M 20.53125 1.03125 C 17.519531 1.03125 14.90625 0.484375 12.6875 -0.609375 C 10.476562 -1.710938 8.78125 -3.222656 7.59375 -5.140625 C 6.40625 -7.054688 5.8125 -9.222656 5.8125 -11.640625 L 5.8125 -32.515625 L 1.03125 -32.515625 L 1.03125 -34.21875 L 5.8125 -34.21875 L 5.8125 -37.65625 C 5.8125 -41.757812 7.867188 -43.8125 11.984375 -43.8125 L 16.765625 -43.8125 L 16.765625 -34.21875 L 26.359375 -34.21875 L 26.359375 -32.515625 L 16.765625 -32.515625 L 16.765625 -11.640625 C 16.765625 -7.441406 17.195312 -4.566406 18.0625 -3.015625 C 18.9375 -1.460938 20.21875 -0.6875 21.90625 -0.6875 C 23.550781 -0.6875 24.988281 -1.484375 26.21875 -3.078125 C 27.445312 -4.671875 28.0625 -6.835938 28.0625 -9.578125 L 29.78125 -9.578125 C 29.78125 -6.203125 28.9375 -3.585938 27.25 -1.734375 C 25.5625 0.109375 23.320312 1.03125 20.53125 1.03125 Z M 20.53125 1.03125 "/></g></g></g><g fill="#000000" fill-opacity="1"><g transform="translate(211.515104, 202.005713)"><g><path d="M 2.734375 -1.03125 L 6.84375 -2.046875 L 6.84375 -45.859375 L 2.734375 -46.890625 L 2.734375 -47.921875 L 11.640625 -47.921875 C 15.742188 -47.921875 17.796875 -45.863281 17.796875 -41.75 L 17.796875 -2.046875 L 21.90625 -1.03125 L 21.90625 0 L 2.734375 0 Z M 2.734375 -1.03125 "/></g></g></g><g fill="#000000" fill-opacity="1"><g transform="translate(234.786153, 202.005713)"><g><path d="M 21.21875 1.03125 C 15.375 1.03125 10.832031 -0.578125 7.59375 -3.796875 C 4.351562 -7.015625 2.734375 -11.453125 2.734375 -17.109375 C 2.734375 -20.804688 3.441406 -24.023438 4.859375 -26.765625 C 6.273438 -29.503906 8.25 -31.601562 10.78125 -33.0625 C 13.3125 -34.519531 16.222656 -35.25 19.515625 -35.25 C 22.796875 -35.25 25.679688 -34.632812 28.171875 -33.40625 C 30.660156 -32.175781 32.578125 -30.519531 33.921875 -28.4375 C 35.265625 -26.363281 35.9375 -24.070312 35.9375 -21.5625 C 35.9375 -20.414062 35.820312 -19.4375 35.59375 -18.625 L 35.25 -17.453125 C 33.289062 -17.046875 31.171875 -16.703125 28.890625 -16.421875 C 24.097656 -15.742188 19.257812 -15.40625 14.375 -15.40625 C 14.375 -10.113281 15.101562 -6.335938 16.5625 -4.078125 C 18.019531 -1.816406 20.03125 -0.6875 22.59375 -0.6875 C 24.375 -0.6875 26.023438 -1.109375 27.546875 -1.953125 C 29.078125 -2.796875 30.285156 -3.910156 31.171875 -5.296875 C 32.066406 -6.691406 32.515625 -8.117188 32.515625 -9.578125 L 34.21875 -9.578125 C 34.21875 -7.753906 33.671875 -6.019531 32.578125 -4.375 C 31.484375 -2.738281 29.953125 -1.425781 27.984375 -0.4375 C 26.023438 0.539062 23.769531 1.03125 21.21875 1.03125 Z M 14.375 -17.109375 C 17.289062 -17.109375 19.664062 -17.222656 21.5 -17.453125 C 22.269531 -17.503906 23.085938 -17.617188 23.953125 -17.796875 C 24.003906 -18.023438 24.117188 -18.523438 24.296875 -19.296875 C 24.523438 -20.441406 24.640625 -21.65625 24.640625 -22.9375 C 24.640625 -26.71875 24.132812 -29.488281 23.125 -31.25 C 22.125 -33.007812 20.921875 -33.890625 19.515625 -33.890625 C 16.085938 -33.890625 14.375 -28.296875 14.375 -17.109375 Z M 14.375 -17.109375 "/></g></g></g><g fill="#000000" fill-opacity="1"><g transform="translate(273.114946, 202.005713)"><g><path d="M 18.828125 1.03125 C 15.992188 1.03125 13.457031 0.410156 11.21875 -0.828125 C 10.125 -1.421875 9.238281 -2.054688 8.5625 -2.734375 C 7.832031 -1.734375 7.03125 -0.957031 6.15625 -0.40625 C 5.75 -0.132812 5.296875 0.113281 4.796875 0.34375 L 3.078125 0.34375 L 3.078125 -11.296875 L 5.8125 -11.296875 C 6.40625 -9.378906 7.273438 -7.597656 8.421875 -5.953125 C 10.835938 -2.441406 13.847656 -0.6875 17.453125 -0.6875 C 19.367188 -0.6875 20.816406 -1.148438 21.796875 -2.078125 C 22.785156 -3.015625 23.28125 -4.375 23.28125 -6.15625 C 23.28125 -7.664062 22.601562 -8.929688 21.25 -9.953125 C 19.90625 -10.984375 17.796875 -12.253906 14.921875 -13.765625 C 12.453125 -14.992188 10.453125 -16.097656 8.921875 -17.078125 C 7.398438 -18.054688 6.101562 -19.285156 5.03125 -20.765625 C 3.957031 -22.253906 3.421875 -24.003906 3.421875 -26.015625 C 3.421875 -28.753906 4.59375 -30.976562 6.9375 -32.6875 C 9.289062 -34.394531 12.910156 -35.25 17.796875 -35.25 C 20.210938 -35.25 22.445312 -34.613281 24.5 -33.34375 C 25.507812 -32.75 26.378906 -32.128906 27.109375 -31.484375 C 27.703125 -32.304688 28.5 -33.082031 29.5 -33.8125 C 30.28125 -34.269531 30.738281 -34.519531 30.875 -34.5625 L 32.578125 -34.5625 L 32.578125 -22.9375 L 29.84375 -22.9375 C 29.15625 -24.894531 28.3125 -26.648438 27.3125 -28.203125 C 25.03125 -31.765625 22.316406 -33.546875 19.171875 -33.546875 C 17.929688 -33.546875 16.878906 -33.085938 16.015625 -32.171875 C 15.148438 -31.253906 14.71875 -30.113281 14.71875 -28.75 C 14.71875 -27.019531 15.445312 -25.570312 16.90625 -24.40625 C 18.363281 -23.238281 20.578125 -21.90625 23.546875 -20.40625 C 25.960938 -19.164062 27.890625 -18.078125 29.328125 -17.140625 C 30.765625 -16.210938 31.992188 -15.0625 33.015625 -13.6875 C 34.046875 -12.320312 34.5625 -10.726562 34.5625 -8.90625 C 34.5625 -2.28125 29.316406 1.03125 18.828125 1.03125 Z M 18.828125 1.03125 "/></g></g></g><g fill="#000000" fill-opacity="1"><g transform="translate(310.074846, 202.005713)"><g><path d="M 18.828125 1.03125 C 15.992188 1.03125 13.457031 0.410156 11.21875 -0.828125 C 10.125 -1.421875 9.238281 -2.054688 8.5625 -2.734375 C 7.832031 -1.734375 7.03125 -0.957031 6.15625 -0.40625 C 5.75 -0.132812 5.296875 0.113281 4.796875 0.34375 L 3.078125 0.34375 L 3.078125 -11.296875 L 5.8125 -11.296875 C 6.40625 -9.378906 7.273438 -7.597656 8.421875 -5.953125 C 10.835938 -2.441406 13.847656 -0.6875 17.453125 -0.6875 C 19.367188 -0.6875 20.816406 -1.148438 21.796875 -2.078125 C 22.785156 -3.015625 23.28125 -4.375 23.28125 -6.15625 C 23.28125 -7.664062 22.601562 -8.929688 21.25 -9.953125 C 19.90625 -10.984375 17.796875 -12.253906 14.921875 -13.765625 C 12.453125 -14.992188 10.453125 -16.097656 8.921875 -17.078125 C 7.398438 -18.054688 6.101562 -19.285156 5.03125 -20.765625 C 3.957031 -22.253906 3.421875 -24.003906 3.421875 -26.015625 C 3.421875 -28.753906 4.59375 -30.976562 6.9375 -32.6875 C 9.289062 -34.394531 12.910156 -35.25 17.796875 -35.25 C 20.210938 -35.25 22.445312 -34.613281 24.5 -33.34375 C 25.507812 -32.75 26.378906 -32.128906 27.109375 -31.484375 C 27.703125 -32.304688 28.5 -33.082031 29.5 -33.8125 C 30.28125 -34.269531 30.738281 -34.519531 30.875 -34.5625 L 32.578125 -34.5625 L 32.578125 -22.9375 L 29.84375 -22.9375 C 29.15625 -24.894531 28.3125 -26.648438 27.3125 -28.203125 C 25.03125 -31.765625 22.316406 -33.546875 19.171875 -33.546875 C 17.929688 -33.546875 16.878906 -33.085938 16.015625 -32.171875 C 15.148438 -31.253906 14.71875 -30.113281 14.71875 -28.75 C 14.71875 -27.019531 15.445312 -25.570312 16.90625 -24.40625 C 18.363281 -23.238281 20.578125 -21.90625 23.546875 -20.40625 C 25.960938 -19.164062 27.890625 -18.078125 29.328125 -17.140625 C 30.765625 -16.210938 31.992188 -15.0625 33.015625 -13.6875 C 34.046875 -12.320312 34.5625 -10.726562 34.5625 -8.90625 C 34.5625 -2.28125 29.316406 1.03125 18.828125 1.03125 Z M 18.828125 1.03125 "/></g></g></g></svg>